<mxfile host="app.diagrams.net" agent="Mozilla/5.0 (X11; Linux x86_64) AppleWebKit/537.36 (KHTML, like Gecko) Chrome/123.0.0.0 Safari/537.36" version="25.0.1">
  <diagram name="Page-1" id="FJV9TEoHZtrLvyN_X3jG">
    <mxGraphModel dx="1154" dy="1441" grid="1" gridSize="10" guides="1" tooltips="1" connect="1" arrows="1" fold="1" page="1" pageScale="1" pageWidth="827" pageHeight="1169" math="0" shadow="0">
      <root>
        <mxCell id="0" />
        <mxCell id="1" parent="0" />
        <mxCell id="mEplCJTfRPDw75s_e4YN-2" value="Web user" style="shape=umlFrame;whiteSpace=wrap;html=1;pointerEvents=0;width=100;height=30;fillColor=#6d8764;strokeColor=#3A5431;fontColor=#ffffff;" vertex="1" parent="1">
          <mxGeometry x="80" y="100" width="300" height="200" as="geometry" />
        </mxCell>
        <mxCell id="mEplCJTfRPDw75s_e4YN-3" value="&lt;font style=&quot;font-size: 14px;&quot;&gt;Browser&lt;/font&gt;" style="html=1;dropTarget=0;whiteSpace=wrap;" vertex="1" parent="1">
          <mxGeometry x="240" y="120" width="130" height="70" as="geometry" />
        </mxCell>
        <mxCell id="mEplCJTfRPDw75s_e4YN-4" value="" style="shape=module;jettyWidth=8;jettyHeight=4;" vertex="1" parent="mEplCJTfRPDw75s_e4YN-3">
          <mxGeometry x="1" width="20" height="20" relative="1" as="geometry">
            <mxPoint x="-27" y="7" as="offset" />
          </mxGeometry>
        </mxCell>
        <mxCell id="mEplCJTfRPDw75s_e4YN-5" value="Local storage" style="shape=cylinder3;whiteSpace=wrap;html=1;boundedLbl=1;backgroundOutline=1;size=15;" vertex="1" parent="1">
          <mxGeometry x="100" y="230" width="120" height="50" as="geometry" />
        </mxCell>
        <mxCell id="mEplCJTfRPDw75s_e4YN-6" value="Cookies" style="shape=cylinder3;whiteSpace=wrap;html=1;boundedLbl=1;backgroundOutline=1;size=15;" vertex="1" parent="1">
          <mxGeometry x="240" y="230" width="120" height="50" as="geometry" />
        </mxCell>
        <mxCell id="mEplCJTfRPDw75s_e4YN-7" style="edgeStyle=orthogonalEdgeStyle;rounded=0;orthogonalLoop=1;jettySize=auto;html=1;exitX=0;exitY=0.5;exitDx=0;exitDy=0;entryX=0.5;entryY=0;entryDx=0;entryDy=0;entryPerimeter=0;curved=1;dashed=1;dashPattern=1 1;" edge="1" parent="1" source="mEplCJTfRPDw75s_e4YN-3" target="mEplCJTfRPDw75s_e4YN-5">
          <mxGeometry relative="1" as="geometry" />
        </mxCell>
        <mxCell id="mEplCJTfRPDw75s_e4YN-8" value="Save local&lt;div&gt;user&amp;nbsp;&lt;span style=&quot;background-color: initial;&quot;&gt;info&lt;/span&gt;&lt;/div&gt;" style="text;html=1;align=center;verticalAlign=middle;resizable=0;points=[];autosize=1;strokeColor=none;fillColor=none;" vertex="1" parent="1">
          <mxGeometry x="95" y="160" width="80" height="40" as="geometry" />
        </mxCell>
        <mxCell id="mEplCJTfRPDw75s_e4YN-9" style="edgeStyle=orthogonalEdgeStyle;rounded=0;orthogonalLoop=1;jettySize=auto;html=1;exitX=0.5;exitY=1;exitDx=0;exitDy=0;entryX=0.5;entryY=0;entryDx=0;entryDy=0;entryPerimeter=0;curved=1;dashed=1;dashPattern=1 1;" edge="1" parent="1" source="mEplCJTfRPDw75s_e4YN-3" target="mEplCJTfRPDw75s_e4YN-6">
          <mxGeometry relative="1" as="geometry" />
        </mxCell>
        <mxCell id="mEplCJTfRPDw75s_e4YN-10" value="Save user info&lt;div&gt;in cookies&lt;/div&gt;" style="text;html=1;align=center;verticalAlign=middle;resizable=0;points=[];autosize=1;strokeColor=none;fillColor=none;" vertex="1" parent="1">
          <mxGeometry x="210" y="191" width="100" height="40" as="geometry" />
        </mxCell>
        <mxCell id="mEplCJTfRPDw75s_e4YN-11" value="VSP provider internal network" style="shape=umlFrame;whiteSpace=wrap;html=1;pointerEvents=0;width=220;height=30;fillColor=#b1ddf0;strokeColor=#10739e;" vertex="1" parent="1">
          <mxGeometry x="130" y="560" width="380" height="240" as="geometry" />
        </mxCell>
        <mxCell id="mEplCJTfRPDw75s_e4YN-12" value="&lt;font style=&quot;font-size: 14px;&quot;&gt;SalesForce CRM&lt;/font&gt;" style="html=1;dropTarget=0;whiteSpace=wrap;" vertex="1" parent="1">
          <mxGeometry x="360" y="710" width="130" height="70" as="geometry" />
        </mxCell>
        <mxCell id="mEplCJTfRPDw75s_e4YN-13" value="" style="shape=module;jettyWidth=8;jettyHeight=4;" vertex="1" parent="mEplCJTfRPDw75s_e4YN-12">
          <mxGeometry x="1" width="20" height="20" relative="1" as="geometry">
            <mxPoint x="-27" y="7" as="offset" />
          </mxGeometry>
        </mxCell>
        <mxCell id="mEplCJTfRPDw75s_e4YN-14" value="Cloud Storage" style="shape=cylinder3;whiteSpace=wrap;html=1;boundedLbl=1;backgroundOutline=1;size=15;" vertex="1" parent="1">
          <mxGeometry x="160" y="690" width="120" height="70" as="geometry" />
        </mxCell>
        <mxCell id="mEplCJTfRPDw75s_e4YN-15" value="External API" style="shape=umlFrame;whiteSpace=wrap;html=1;pointerEvents=0;width=220;height=30;fillColor=#f8cecc;strokeColor=#b85450;" vertex="1" parent="1">
          <mxGeometry x="760" y="340" width="190" height="150" as="geometry" />
        </mxCell>
        <mxCell id="mEplCJTfRPDw75s_e4YN-16" value="&lt;font style=&quot;font-size: 14px;&quot;&gt;Google Maps API&lt;/font&gt;" style="html=1;dropTarget=0;whiteSpace=wrap;" vertex="1" parent="1">
          <mxGeometry x="790" y="390" width="130" height="70" as="geometry" />
        </mxCell>
        <mxCell id="mEplCJTfRPDw75s_e4YN-17" value="" style="shape=module;jettyWidth=8;jettyHeight=4;" vertex="1" parent="mEplCJTfRPDw75s_e4YN-16">
          <mxGeometry x="1" width="20" height="20" relative="1" as="geometry">
            <mxPoint x="-27" y="7" as="offset" />
          </mxGeometry>
        </mxCell>
        <mxCell id="mEplCJTfRPDw75s_e4YN-18" value="Phone app" style="shape=umlFrame;whiteSpace=wrap;html=1;pointerEvents=0;width=100;height=30;fillColor=#6d8764;strokeColor=#3A5431;fontColor=#ffffff;" vertex="1" parent="1">
          <mxGeometry x="405" y="100" width="300" height="200" as="geometry" />
        </mxCell>
        <mxCell id="mEplCJTfRPDw75s_e4YN-19" value="&lt;font style=&quot;font-size: 14px;&quot;&gt;Application&lt;/font&gt;" style="html=1;dropTarget=0;whiteSpace=wrap;" vertex="1" parent="1">
          <mxGeometry x="560" y="120" width="130" height="70" as="geometry" />
        </mxCell>
        <mxCell id="mEplCJTfRPDw75s_e4YN-20" value="" style="shape=module;jettyWidth=8;jettyHeight=4;" vertex="1" parent="mEplCJTfRPDw75s_e4YN-19">
          <mxGeometry x="1" width="20" height="20" relative="1" as="geometry">
            <mxPoint x="-27" y="7" as="offset" />
          </mxGeometry>
        </mxCell>
        <mxCell id="mEplCJTfRPDw75s_e4YN-32" style="edgeStyle=orthogonalEdgeStyle;rounded=0;orthogonalLoop=1;jettySize=auto;html=1;exitX=-0.003;exitY=0.994;exitDx=0;exitDy=0;exitPerimeter=0;entryX=0;entryY=0.5;entryDx=0;entryDy=0;curved=1;startArrow=classic;startFill=1;" edge="1" parent="1" source="mEplCJTfRPDw75s_e4YN-18" target="mEplCJTfRPDw75s_e4YN-23">
          <mxGeometry relative="1" as="geometry" />
        </mxCell>
        <mxCell id="mEplCJTfRPDw75s_e4YN-21" value="Cached data,&lt;div&gt;local storage&lt;/div&gt;" style="shape=cylinder3;whiteSpace=wrap;html=1;boundedLbl=1;backgroundOutline=1;size=15;" vertex="1" parent="1">
          <mxGeometry x="430" y="220" width="120" height="70" as="geometry" />
        </mxCell>
        <mxCell id="mEplCJTfRPDw75s_e4YN-22" style="edgeStyle=orthogonalEdgeStyle;rounded=0;orthogonalLoop=1;jettySize=auto;html=1;exitX=0;exitY=0.5;exitDx=0;exitDy=0;entryX=0.5;entryY=0;entryDx=0;entryDy=0;entryPerimeter=0;curved=1;dashed=1;dashPattern=1 1;" edge="1" parent="1" source="mEplCJTfRPDw75s_e4YN-19" target="mEplCJTfRPDw75s_e4YN-21">
          <mxGeometry relative="1" as="geometry" />
        </mxCell>
        <mxCell id="mEplCJTfRPDw75s_e4YN-29" style="edgeStyle=orthogonalEdgeStyle;rounded=0;orthogonalLoop=1;jettySize=auto;html=1;exitX=1;exitY=0.5;exitDx=0;exitDy=0;entryX=1;entryY=0.5;entryDx=0;entryDy=0;curved=1;startArrow=classic;startFill=1;" edge="1" parent="1" source="mEplCJTfRPDw75s_e4YN-23" target="mEplCJTfRPDw75s_e4YN-26">
          <mxGeometry relative="1" as="geometry" />
        </mxCell>
        <mxCell id="mEplCJTfRPDw75s_e4YN-30" style="edgeStyle=orthogonalEdgeStyle;rounded=0;orthogonalLoop=1;jettySize=auto;html=1;exitX=1;exitY=0.5;exitDx=0;exitDy=0;entryX=1;entryY=0.5;entryDx=0;entryDy=0;curved=1;startArrow=classic;startFill=1;" edge="1" parent="1" source="mEplCJTfRPDw75s_e4YN-23" target="mEplCJTfRPDw75s_e4YN-12">
          <mxGeometry relative="1" as="geometry" />
        </mxCell>
        <mxCell id="mEplCJTfRPDw75s_e4YN-23" value="&lt;font style=&quot;font-size: 14px;&quot;&gt;API Gateway&lt;/font&gt;" style="html=1;dropTarget=0;whiteSpace=wrap;fillColor=#fad9d5;strokeColor=#ae4132;" vertex="1" parent="1">
          <mxGeometry x="510" y="430" width="130" height="70" as="geometry" />
        </mxCell>
        <mxCell id="mEplCJTfRPDw75s_e4YN-25" style="edgeStyle=orthogonalEdgeStyle;rounded=0;orthogonalLoop=1;jettySize=auto;html=1;exitX=0;exitY=0.5;exitDx=0;exitDy=0;entryX=1;entryY=0.5;entryDx=0;entryDy=0;entryPerimeter=0;curved=1;startArrow=classic;startFill=1;" edge="1" parent="1" source="mEplCJTfRPDw75s_e4YN-12" target="mEplCJTfRPDw75s_e4YN-14">
          <mxGeometry relative="1" as="geometry" />
        </mxCell>
        <mxCell id="mEplCJTfRPDw75s_e4YN-26" value="&lt;font style=&quot;font-size: 14px;&quot;&gt;Auth provider&lt;/font&gt;" style="html=1;dropTarget=0;whiteSpace=wrap;" vertex="1" parent="1">
          <mxGeometry x="360" y="610" width="130" height="70" as="geometry" />
        </mxCell>
        <mxCell id="mEplCJTfRPDw75s_e4YN-27" value="" style="shape=module;jettyWidth=8;jettyHeight=4;" vertex="1" parent="mEplCJTfRPDw75s_e4YN-26">
          <mxGeometry x="1" width="20" height="20" relative="1" as="geometry">
            <mxPoint x="-27" y="7" as="offset" />
          </mxGeometry>
        </mxCell>
        <mxCell id="mEplCJTfRPDw75s_e4YN-28" style="edgeStyle=orthogonalEdgeStyle;rounded=0;orthogonalLoop=1;jettySize=auto;html=1;exitX=0;exitY=0.5;exitDx=0;exitDy=0;entryX=0.5;entryY=0;entryDx=0;entryDy=0;entryPerimeter=0;curved=1;startArrow=classic;startFill=1;" edge="1" parent="1" source="mEplCJTfRPDw75s_e4YN-26" target="mEplCJTfRPDw75s_e4YN-14">
          <mxGeometry relative="1" as="geometry" />
        </mxCell>
        <mxCell id="mEplCJTfRPDw75s_e4YN-31" style="edgeStyle=orthogonalEdgeStyle;rounded=0;orthogonalLoop=1;jettySize=auto;html=1;exitX=0.509;exitY=0.994;exitDx=0;exitDy=0;exitPerimeter=0;entryX=0;entryY=0.5;entryDx=0;entryDy=0;curved=1;startArrow=classic;startFill=1;" edge="1" parent="1" source="mEplCJTfRPDw75s_e4YN-2" target="mEplCJTfRPDw75s_e4YN-23">
          <mxGeometry relative="1" as="geometry">
            <mxPoint x="180" y="370" as="targetPoint" />
            <Array as="points">
              <mxPoint x="233" y="485" />
            </Array>
          </mxGeometry>
        </mxCell>
        <mxCell id="mEplCJTfRPDw75s_e4YN-33" value="" style="endArrow=classic;html=1;rounded=0;entryX=0.507;entryY=-0.002;entryDx=0;entryDy=0;entryPerimeter=0;exitX=1.006;exitY=0.488;exitDx=0;exitDy=0;exitPerimeter=0;edgeStyle=orthogonalEdgeStyle;curved=1;" edge="1" parent="1" source="mEplCJTfRPDw75s_e4YN-18" target="mEplCJTfRPDw75s_e4YN-15">
          <mxGeometry width="50" height="50" relative="1" as="geometry">
            <mxPoint x="530" y="360" as="sourcePoint" />
            <mxPoint x="580" y="310" as="targetPoint" />
          </mxGeometry>
        </mxCell>
        <mxCell id="mEplCJTfRPDw75s_e4YN-34" value="HTTP request/response" style="text;html=1;align=center;verticalAlign=middle;whiteSpace=wrap;rounded=0;" vertex="1" parent="1">
          <mxGeometry x="304" y="430" width="110" height="30" as="geometry" />
        </mxCell>
        <mxCell id="mEplCJTfRPDw75s_e4YN-36" value="" style="endArrow=classic;html=1;rounded=0;entryX=0.999;entryY=0.738;entryDx=0;entryDy=0;entryPerimeter=0;edgeStyle=orthogonalEdgeStyle;curved=1;exitX=0.421;exitY=0;exitDx=0;exitDy=0;exitPerimeter=0;" edge="1" parent="1" source="mEplCJTfRPDw75s_e4YN-15" target="mEplCJTfRPDw75s_e4YN-18">
          <mxGeometry width="50" height="50" relative="1" as="geometry">
            <mxPoint x="800" y="170" as="sourcePoint" />
            <mxPoint x="866" y="350" as="targetPoint" />
            <Array as="points">
              <mxPoint x="840" y="270" />
              <mxPoint x="720" y="270" />
              <mxPoint x="720" y="248" />
            </Array>
          </mxGeometry>
        </mxCell>
        <mxCell id="mEplCJTfRPDw75s_e4YN-37" value="HTTP request/response" style="text;html=1;align=center;verticalAlign=middle;whiteSpace=wrap;rounded=0;" vertex="1" parent="1">
          <mxGeometry x="630" y="680" width="110" height="30" as="geometry" />
        </mxCell>
        <mxCell id="mEplCJTfRPDw75s_e4YN-38" value="HTTP request/response" style="text;html=1;align=center;verticalAlign=middle;whiteSpace=wrap;rounded=0;" vertex="1" parent="1">
          <mxGeometry x="721" y="227" width="110" height="30" as="geometry" />
        </mxCell>
        <mxCell id="mEplCJTfRPDw75s_e4YN-39" value="TCP connection" style="text;html=1;align=center;verticalAlign=middle;whiteSpace=wrap;rounded=0;" vertex="1" parent="1">
          <mxGeometry x="190" y="621" width="110" height="30" as="geometry" />
        </mxCell>
        <mxCell id="mEplCJTfRPDw75s_e4YN-40" value="TCP connection" style="text;html=1;align=center;verticalAlign=middle;whiteSpace=wrap;rounded=0;" vertex="1" parent="1">
          <mxGeometry x="245" y="760" width="110" height="30" as="geometry" />
        </mxCell>
        <mxCell id="mEplCJTfRPDw75s_e4YN-41" value="File storage" style="text;html=1;align=center;verticalAlign=middle;whiteSpace=wrap;rounded=0;" vertex="1" parent="1">
          <mxGeometry x="487" y="187" width="110" height="30" as="geometry" />
        </mxCell>
      </root>
    </mxGraphModel>
  </diagram>
</mxfile>
